<mxfile host="app.diagrams.net" modified="2022-04-27T12:40:02.498Z" agent="5.0 (Windows NT 10.0; Win64; x64) AppleWebKit/537.36 (KHTML, like Gecko) Chrome/100.0.4896.127 Safari/537.36 Edg/100.0.1185.50" etag="fpOZIg2MPjKCoYfu-pd7" version="17.4.6" type="github">
  <diagram id="7jgnfmdik__v_Dh01FzP" name="Page-1">
    <mxGraphModel dx="1038" dy="579" grid="1" gridSize="10" guides="1" tooltips="1" connect="1" arrows="1" fold="1" page="1" pageScale="1" pageWidth="850" pageHeight="1100" math="0" shadow="0">
      <root>
        <mxCell id="0" />
        <mxCell id="1" parent="0" />
        <mxCell id="zlbkf5JhejLguei-TKCg-3" value="" style="edgeStyle=orthogonalEdgeStyle;rounded=0;orthogonalLoop=1;jettySize=auto;html=1;" edge="1" parent="1" source="zlbkf5JhejLguei-TKCg-1" target="zlbkf5JhejLguei-TKCg-2">
          <mxGeometry relative="1" as="geometry" />
        </mxCell>
        <mxCell id="zlbkf5JhejLguei-TKCg-1" value="start" style="rounded=1;whiteSpace=wrap;html=1;" vertex="1" parent="1">
          <mxGeometry x="40" y="20" width="100" height="30" as="geometry" />
        </mxCell>
        <mxCell id="zlbkf5JhejLguei-TKCg-5" value="" style="edgeStyle=orthogonalEdgeStyle;rounded=0;orthogonalLoop=1;jettySize=auto;html=1;" edge="1" parent="1" source="zlbkf5JhejLguei-TKCg-2" target="zlbkf5JhejLguei-TKCg-4">
          <mxGeometry relative="1" as="geometry" />
        </mxCell>
        <mxCell id="zlbkf5JhejLguei-TKCg-2" value="Initialize the return filter object" style="rounded=0;whiteSpace=wrap;html=1;" vertex="1" parent="1">
          <mxGeometry x="30" y="110" width="120" height="60" as="geometry" />
        </mxCell>
        <mxCell id="zlbkf5JhejLguei-TKCg-11" value="yes" style="edgeStyle=orthogonalEdgeStyle;rounded=0;orthogonalLoop=1;jettySize=auto;html=1;" edge="1" parent="1" source="zlbkf5JhejLguei-TKCg-4" target="zlbkf5JhejLguei-TKCg-10">
          <mxGeometry relative="1" as="geometry" />
        </mxCell>
        <mxCell id="zlbkf5JhejLguei-TKCg-4" value="IF totalagent input is empty" style="rhombus;whiteSpace=wrap;html=1;rounded=0;" vertex="1" parent="1">
          <mxGeometry x="50" y="220" width="80" height="80" as="geometry" />
        </mxCell>
        <mxCell id="zlbkf5JhejLguei-TKCg-13" value="" style="edgeStyle=orthogonalEdgeStyle;rounded=0;orthogonalLoop=1;jettySize=auto;html=1;" edge="1" parent="1" source="zlbkf5JhejLguei-TKCg-10" target="zlbkf5JhejLguei-TKCg-12">
          <mxGeometry relative="1" as="geometry" />
        </mxCell>
        <mxCell id="zlbkf5JhejLguei-TKCg-10" value="return the empty filter data object" style="rounded=0;whiteSpace=wrap;html=1;" vertex="1" parent="1">
          <mxGeometry x="30" y="350" width="120" height="60" as="geometry" />
        </mxCell>
        <mxCell id="zlbkf5JhejLguei-TKCg-15" value="" style="edgeStyle=orthogonalEdgeStyle;rounded=0;orthogonalLoop=1;jettySize=auto;html=1;" edge="1" parent="1" source="zlbkf5JhejLguei-TKCg-12" target="zlbkf5JhejLguei-TKCg-14">
          <mxGeometry relative="1" as="geometry">
            <Array as="points">
              <mxPoint x="170" y="490" />
              <mxPoint x="170" y="60" />
            </Array>
          </mxGeometry>
        </mxCell>
        <mxCell id="zlbkf5JhejLguei-TKCg-12" value="IF totalagent input is string" style="rhombus;whiteSpace=wrap;html=1;rounded=0;" vertex="1" parent="1">
          <mxGeometry x="50" y="450" width="80" height="80" as="geometry" />
        </mxCell>
        <mxCell id="zlbkf5JhejLguei-TKCg-17" value="" style="edgeStyle=orthogonalEdgeStyle;rounded=0;orthogonalLoop=1;jettySize=auto;html=1;" edge="1" parent="1" source="zlbkf5JhejLguei-TKCg-14" target="zlbkf5JhejLguei-TKCg-16">
          <mxGeometry relative="1" as="geometry" />
        </mxCell>
        <mxCell id="zlbkf5JhejLguei-TKCg-14" value="convert into json object" style="whiteSpace=wrap;html=1;rounded=0;" vertex="1" parent="1">
          <mxGeometry x="220" y="30" width="120" height="60" as="geometry" />
        </mxCell>
        <mxCell id="zlbkf5JhejLguei-TKCg-19" value="" style="edgeStyle=orthogonalEdgeStyle;rounded=0;orthogonalLoop=1;jettySize=auto;html=1;" edge="1" parent="1" source="zlbkf5JhejLguei-TKCg-16" target="zlbkf5JhejLguei-TKCg-18">
          <mxGeometry relative="1" as="geometry" />
        </mxCell>
        <mxCell id="zlbkf5JhejLguei-TKCg-16" value="FOR all sight rng data" style="rhombus;whiteSpace=wrap;html=1;" vertex="1" parent="1">
          <mxGeometry x="240" y="130" width="80" height="80" as="geometry" />
        </mxCell>
        <mxCell id="zlbkf5JhejLguei-TKCg-21" value="yes" style="edgeStyle=orthogonalEdgeStyle;rounded=0;orthogonalLoop=1;jettySize=auto;html=1;" edge="1" parent="1" source="zlbkf5JhejLguei-TKCg-18" target="zlbkf5JhejLguei-TKCg-20">
          <mxGeometry relative="1" as="geometry" />
        </mxCell>
        <mxCell id="zlbkf5JhejLguei-TKCg-28" value="no" style="edgeStyle=orthogonalEdgeStyle;rounded=0;orthogonalLoop=1;jettySize=auto;html=1;" edge="1" parent="1" source="zlbkf5JhejLguei-TKCg-18" target="zlbkf5JhejLguei-TKCg-27">
          <mxGeometry relative="1" as="geometry" />
        </mxCell>
        <mxCell id="zlbkf5JhejLguei-TKCg-35" value="" style="edgeStyle=orthogonalEdgeStyle;rounded=0;orthogonalLoop=1;jettySize=auto;html=1;" edge="1" parent="1" source="zlbkf5JhejLguei-TKCg-18" target="zlbkf5JhejLguei-TKCg-20">
          <mxGeometry relative="1" as="geometry" />
        </mxCell>
        <mxCell id="zlbkf5JhejLguei-TKCg-18" value="IF index not size and agent is pop&amp;nbsp;" style="rhombus;whiteSpace=wrap;html=1;" vertex="1" parent="1">
          <mxGeometry x="240" y="240" width="80" height="80" as="geometry" />
        </mxCell>
        <mxCell id="zlbkf5JhejLguei-TKCg-23" value="" style="edgeStyle=orthogonalEdgeStyle;rounded=0;orthogonalLoop=1;jettySize=auto;html=1;" edge="1" parent="1" source="zlbkf5JhejLguei-TKCg-20" target="zlbkf5JhejLguei-TKCg-22">
          <mxGeometry relative="1" as="geometry" />
        </mxCell>
        <mxCell id="zlbkf5JhejLguei-TKCg-20" value="IF return object index 0 empty" style="rhombus;whiteSpace=wrap;html=1;" vertex="1" parent="1">
          <mxGeometry x="400" y="240" width="80" height="80" as="geometry" />
        </mxCell>
        <mxCell id="zlbkf5JhejLguei-TKCg-26" value="" style="edgeStyle=orthogonalEdgeStyle;rounded=0;orthogonalLoop=1;jettySize=auto;html=1;" edge="1" parent="1" source="zlbkf5JhejLguei-TKCg-22" target="zlbkf5JhejLguei-TKCg-24">
          <mxGeometry relative="1" as="geometry" />
        </mxCell>
        <mxCell id="zlbkf5JhejLguei-TKCg-22" value="create the index 0 array" style="whiteSpace=wrap;html=1;" vertex="1" parent="1">
          <mxGeometry x="380" y="350" width="120" height="60" as="geometry" />
        </mxCell>
        <mxCell id="zlbkf5JhejLguei-TKCg-24" value="store the rvo id into arrat" style="shape=dataStorage;whiteSpace=wrap;html=1;fixedSize=1;" vertex="1" parent="1">
          <mxGeometry x="550" y="350" width="70" height="60" as="geometry" />
        </mxCell>
        <mxCell id="zlbkf5JhejLguei-TKCg-34" value="" style="edgeStyle=orthogonalEdgeStyle;rounded=0;orthogonalLoop=1;jettySize=auto;html=1;" edge="1" parent="1" source="zlbkf5JhejLguei-TKCg-27" target="zlbkf5JhejLguei-TKCg-30">
          <mxGeometry relative="1" as="geometry" />
        </mxCell>
        <mxCell id="zlbkf5JhejLguei-TKCg-56" style="edgeStyle=orthogonalEdgeStyle;rounded=0;orthogonalLoop=1;jettySize=auto;html=1;" edge="1" parent="1" source="zlbkf5JhejLguei-TKCg-27" target="zlbkf5JhejLguei-TKCg-43">
          <mxGeometry relative="1" as="geometry" />
        </mxCell>
        <mxCell id="zlbkf5JhejLguei-TKCg-27" value="ELSE IF agent is card or truck" style="rhombus;whiteSpace=wrap;html=1;" vertex="1" parent="1">
          <mxGeometry x="240" y="400" width="80" height="80" as="geometry" />
        </mxCell>
        <mxCell id="zlbkf5JhejLguei-TKCg-29" value="" style="edgeStyle=orthogonalEdgeStyle;rounded=0;orthogonalLoop=1;jettySize=auto;html=1;" edge="1" parent="1" source="zlbkf5JhejLguei-TKCg-30" target="zlbkf5JhejLguei-TKCg-32">
          <mxGeometry relative="1" as="geometry" />
        </mxCell>
        <mxCell id="zlbkf5JhejLguei-TKCg-30" value="IF return object index 0 empty" style="rhombus;whiteSpace=wrap;html=1;" vertex="1" parent="1">
          <mxGeometry x="390" y="420" width="80" height="80" as="geometry" />
        </mxCell>
        <mxCell id="zlbkf5JhejLguei-TKCg-31" value="" style="edgeStyle=orthogonalEdgeStyle;rounded=0;orthogonalLoop=1;jettySize=auto;html=1;" edge="1" parent="1" source="zlbkf5JhejLguei-TKCg-32" target="zlbkf5JhejLguei-TKCg-33">
          <mxGeometry relative="1" as="geometry" />
        </mxCell>
        <mxCell id="zlbkf5JhejLguei-TKCg-32" value="create the index 0 array" style="whiteSpace=wrap;html=1;" vertex="1" parent="1">
          <mxGeometry x="370" y="530" width="120" height="60" as="geometry" />
        </mxCell>
        <mxCell id="zlbkf5JhejLguei-TKCg-33" value="store the rvo id into arrat" style="shape=dataStorage;whiteSpace=wrap;html=1;fixedSize=1;" vertex="1" parent="1">
          <mxGeometry x="540" y="530" width="70" height="60" as="geometry" />
        </mxCell>
        <mxCell id="zlbkf5JhejLguei-TKCg-41" value="no" style="edgeStyle=orthogonalEdgeStyle;rounded=0;orthogonalLoop=1;jettySize=auto;html=1;" edge="1" parent="1" source="zlbkf5JhejLguei-TKCg-43" target="zlbkf5JhejLguei-TKCg-50">
          <mxGeometry relative="1" as="geometry" />
        </mxCell>
        <mxCell id="zlbkf5JhejLguei-TKCg-42" value="" style="edgeStyle=orthogonalEdgeStyle;rounded=0;orthogonalLoop=1;jettySize=auto;html=1;" edge="1" parent="1" source="zlbkf5JhejLguei-TKCg-43" target="zlbkf5JhejLguei-TKCg-45">
          <mxGeometry relative="1" as="geometry" />
        </mxCell>
        <mxCell id="zlbkf5JhejLguei-TKCg-43" value="IF index not size and agent is pop&amp;nbsp;" style="rhombus;whiteSpace=wrap;html=1;" vertex="1" parent="1">
          <mxGeometry x="240" y="620" width="80" height="80" as="geometry" />
        </mxCell>
        <mxCell id="zlbkf5JhejLguei-TKCg-44" value="" style="edgeStyle=orthogonalEdgeStyle;rounded=0;orthogonalLoop=1;jettySize=auto;html=1;" edge="1" parent="1" source="zlbkf5JhejLguei-TKCg-45" target="zlbkf5JhejLguei-TKCg-47">
          <mxGeometry relative="1" as="geometry" />
        </mxCell>
        <mxCell id="zlbkf5JhejLguei-TKCg-45" value="IF return object index 1 empty" style="rhombus;whiteSpace=wrap;html=1;" vertex="1" parent="1">
          <mxGeometry x="395" y="620" width="80" height="80" as="geometry" />
        </mxCell>
        <mxCell id="zlbkf5JhejLguei-TKCg-46" value="" style="edgeStyle=orthogonalEdgeStyle;rounded=0;orthogonalLoop=1;jettySize=auto;html=1;" edge="1" parent="1" source="zlbkf5JhejLguei-TKCg-47" target="zlbkf5JhejLguei-TKCg-48">
          <mxGeometry relative="1" as="geometry" />
        </mxCell>
        <mxCell id="zlbkf5JhejLguei-TKCg-47" value="create the index 1 array" style="whiteSpace=wrap;html=1;" vertex="1" parent="1">
          <mxGeometry x="375" y="730" width="120" height="60" as="geometry" />
        </mxCell>
        <mxCell id="zlbkf5JhejLguei-TKCg-48" value="store the rvo id into arrat" style="shape=dataStorage;whiteSpace=wrap;html=1;fixedSize=1;" vertex="1" parent="1">
          <mxGeometry x="545" y="730" width="70" height="60" as="geometry" />
        </mxCell>
        <mxCell id="zlbkf5JhejLguei-TKCg-49" value="" style="edgeStyle=orthogonalEdgeStyle;rounded=0;orthogonalLoop=1;jettySize=auto;html=1;" edge="1" parent="1" source="zlbkf5JhejLguei-TKCg-50" target="zlbkf5JhejLguei-TKCg-52">
          <mxGeometry relative="1" as="geometry" />
        </mxCell>
        <mxCell id="zlbkf5JhejLguei-TKCg-57" style="edgeStyle=orthogonalEdgeStyle;rounded=0;orthogonalLoop=1;jettySize=auto;html=1;entryX=0;entryY=0.5;entryDx=0;entryDy=0;" edge="1" parent="1" source="zlbkf5JhejLguei-TKCg-50" target="zlbkf5JhejLguei-TKCg-16">
          <mxGeometry relative="1" as="geometry">
            <Array as="points">
              <mxPoint x="280" y="890" />
              <mxPoint x="220" y="890" />
              <mxPoint x="220" y="170" />
            </Array>
          </mxGeometry>
        </mxCell>
        <mxCell id="zlbkf5JhejLguei-TKCg-58" value="next agent&amp;nbsp; in list" style="edgeLabel;html=1;align=center;verticalAlign=middle;resizable=0;points=[];" vertex="1" connectable="0" parent="zlbkf5JhejLguei-TKCg-57">
          <mxGeometry x="0.3566" y="2" relative="1" as="geometry">
            <mxPoint as="offset" />
          </mxGeometry>
        </mxCell>
        <mxCell id="zlbkf5JhejLguei-TKCg-61" style="edgeStyle=orthogonalEdgeStyle;rounded=0;orthogonalLoop=1;jettySize=auto;html=1;" edge="1" parent="1" source="zlbkf5JhejLguei-TKCg-50" target="zlbkf5JhejLguei-TKCg-60">
          <mxGeometry relative="1" as="geometry" />
        </mxCell>
        <mxCell id="zlbkf5JhejLguei-TKCg-50" value="ELSE IF agent is card or truck" style="rhombus;whiteSpace=wrap;html=1;" vertex="1" parent="1">
          <mxGeometry x="240" y="780" width="80" height="80" as="geometry" />
        </mxCell>
        <mxCell id="zlbkf5JhejLguei-TKCg-51" value="" style="edgeStyle=orthogonalEdgeStyle;rounded=0;orthogonalLoop=1;jettySize=auto;html=1;" edge="1" parent="1" source="zlbkf5JhejLguei-TKCg-52" target="zlbkf5JhejLguei-TKCg-54">
          <mxGeometry relative="1" as="geometry" />
        </mxCell>
        <mxCell id="zlbkf5JhejLguei-TKCg-52" value="IF return object index 1 empty" style="rhombus;whiteSpace=wrap;html=1;" vertex="1" parent="1">
          <mxGeometry x="385" y="800" width="80" height="80" as="geometry" />
        </mxCell>
        <mxCell id="zlbkf5JhejLguei-TKCg-53" value="" style="edgeStyle=orthogonalEdgeStyle;rounded=0;orthogonalLoop=1;jettySize=auto;html=1;" edge="1" parent="1" source="zlbkf5JhejLguei-TKCg-54" target="zlbkf5JhejLguei-TKCg-55">
          <mxGeometry relative="1" as="geometry" />
        </mxCell>
        <mxCell id="zlbkf5JhejLguei-TKCg-54" value="create the index 1 array" style="whiteSpace=wrap;html=1;" vertex="1" parent="1">
          <mxGeometry x="365" y="910" width="120" height="60" as="geometry" />
        </mxCell>
        <mxCell id="zlbkf5JhejLguei-TKCg-55" value="store the rvo id into arrat" style="shape=dataStorage;whiteSpace=wrap;html=1;fixedSize=1;" vertex="1" parent="1">
          <mxGeometry x="535" y="910" width="70" height="60" as="geometry" />
        </mxCell>
        <mxCell id="zlbkf5JhejLguei-TKCg-63" value="" style="edgeStyle=orthogonalEdgeStyle;rounded=0;orthogonalLoop=1;jettySize=auto;html=1;" edge="1" parent="1" source="zlbkf5JhejLguei-TKCg-60" target="zlbkf5JhejLguei-TKCg-62">
          <mxGeometry relative="1" as="geometry" />
        </mxCell>
        <mxCell id="zlbkf5JhejLguei-TKCg-60" value="return the filter data object" style="rounded=0;whiteSpace=wrap;html=1;" vertex="1" parent="1">
          <mxGeometry x="220" y="970" width="120" height="60" as="geometry" />
        </mxCell>
        <mxCell id="zlbkf5JhejLguei-TKCg-62" value="end" style="ellipse;whiteSpace=wrap;html=1;rounded=0;" vertex="1" parent="1">
          <mxGeometry x="220" y="1080" width="120" height="40" as="geometry" />
        </mxCell>
      </root>
    </mxGraphModel>
  </diagram>
</mxfile>
